<svg width="205" height="206" viewBox="0 0 205 206" fill="none" xmlns="http://www.w3.org/2000/svg">
<g filter="url(#filter0_f_1_3156)">
<circle cx="102.5" cy="103.305" r="52.5" fill="url(#paint0_linear_1_3156)" fill-opacity="0.3"/>
</g>
<path d="M74.5 104.805C86.9264 104.805 97 94.7312 97 82.3048C97 69.8784 86.9264 59.8048 74.5 59.8048C62.0736 59.8048 52 69.8784 52 82.3048C52 94.7312 62.0736 104.805 74.5 104.805Z" stroke="white" stroke-width="2" stroke-miterlimit="10"/>
<path d="M74.5 104.805C86.9264 104.805 97 94.7312 97 82.3048C97 69.8784 86.9264 59.8048 74.5 59.8048C62.0736 59.8048 52 69.8784 52 82.3048C52 94.7312 62.0736 104.805 74.5 104.805Z" stroke="url(#paint1_linear_1_3156)" stroke-width="2" stroke-miterlimit="10"/>
<path d="M61 88.8048C60.3411 86.8967 60.0018 84.8603 60 82.8048" stroke="white" stroke-width="2" stroke-miterlimit="10" stroke-linecap="round"/>
<path d="M61 88.8048C60.3411 86.8967 60.0018 84.8603 60 82.8048" stroke="url(#paint2_linear_1_3156)" stroke-width="2" stroke-miterlimit="10" stroke-linecap="round"/>
<path d="M61 77.8048C62.128 74.5535 64.0634 71.7693 66.5578 69.8093C69.0523 67.8494 71.9921 66.8031 75 66.8048" stroke="white" stroke-width="2" stroke-miterlimit="10" stroke-linecap="round"/>
<path d="M61 77.8048C62.128 74.5535 64.0634 71.7693 66.5578 69.8093C69.0523 67.8494 71.9921 66.8031 75 66.8048" stroke="url(#paint3_linear_1_3156)" stroke-width="2" stroke-miterlimit="10" stroke-linecap="round"/>
<path d="M123.461 123.795L99.4218 99.7551C103.685 93.6248 105.5 86.1204 104.507 78.7195C103.515 71.3185 99.788 64.5571 94.0602 59.7664C88.3324 54.9757 81.0187 52.5027 73.5589 52.8343C66.099 53.166 59.0336 56.2782 53.7535 61.5583C48.4734 66.8384 45.3612 73.9038 45.0295 81.3636C44.6979 88.8235 47.1708 96.1372 51.9616 101.865C56.7523 107.593 63.5137 111.32 70.9147 112.312C78.3156 113.304 85.8199 111.49 91.9503 107.227L115.99 131.266C116.984 132.252 118.326 132.805 119.726 132.805C121.125 132.805 122.468 132.252 123.461 131.266C124.447 130.273 125 128.93 125 127.531C125 126.131 124.447 124.788 123.461 123.795Z" stroke="white" stroke-width="2" stroke-miterlimit="10" stroke-linecap="round"/>
<defs>
<filter id="filter0_f_1_3156" x="0" y="0.80481" width="205" height="205" filterUnits="userSpaceOnUse" color-interpolation-filters="sRGB">
<feFlood flood-opacity="0" result="BackgroundImageFix"/>
<feBlend mode="normal" in="SourceGraphic" in2="BackgroundImageFix" result="shape"/>
<feGaussianBlur stdDeviation="25" result="effect1_foregroundBlur_1_3156"/>
</filter>
<linearGradient id="paint0_linear_1_3156" x1="80.7895" y1="261.971" x2="242.98" y2="87.1645" gradientUnits="userSpaceOnUse">
<stop stop-color="#D59647"/>
<stop offset="0.19" stop-color="#DBA868"/>
<stop offset="0.36" stop-color="#F0E088"/>
<stop offset="0.46" stop-color="#DAA35F"/>
<stop offset="0.54" stop-color="#D59647"/>
<stop offset="0.77" stop-color="#EFE188"/>
<stop offset="0.91" stop-color="#D59647"/>
<stop offset="0.93" stop-color="#BD843E"/>
<stop offset="0.98" stop-color="#805426"/>
<stop offset="1" stop-color="#68421D"/>
</linearGradient>
<linearGradient id="paint1_linear_1_3156" x1="42.5391" y1="112.426" x2="100.391" y2="110.922" gradientUnits="userSpaceOnUse">
<stop stop-color="#D59647"/>
<stop offset="0.19" stop-color="#DBA868"/>
<stop offset="0.36" stop-color="#F0E088"/>
<stop offset="0.46" stop-color="#DAA35F"/>
<stop offset="0.54" stop-color="#D59647"/>
<stop offset="0.66" stop-color="#9A6830"/>
<stop offset="0.77" stop-color="#EFE188"/>
<stop offset="0.91" stop-color="#D59647"/>
<stop offset="0.93" stop-color="#BD843E"/>
<stop offset="0.98" stop-color="#805426"/>
<stop offset="1" stop-color="#68421D"/>
</linearGradient>
<linearGradient id="paint2_linear_1_3156" x1="59.7898" y1="89.8209" x2="61.0762" y2="89.8154" gradientUnits="userSpaceOnUse">
<stop stop-color="#D59647"/>
<stop offset="0.19" stop-color="#DBA868"/>
<stop offset="0.36" stop-color="#F0E088"/>
<stop offset="0.46" stop-color="#DAA35F"/>
<stop offset="0.54" stop-color="#D59647"/>
<stop offset="0.66" stop-color="#9A6830"/>
<stop offset="0.77" stop-color="#EFE188"/>
<stop offset="0.91" stop-color="#D59647"/>
<stop offset="0.93" stop-color="#BD843E"/>
<stop offset="0.98" stop-color="#805426"/>
<stop offset="1" stop-color="#68421D"/>
</linearGradient>
<linearGradient id="paint3_linear_1_3156" x1="58.0566" y1="79.6677" x2="76.0475" y2="79.0724" gradientUnits="userSpaceOnUse">
<stop stop-color="#D59647"/>
<stop offset="0.19" stop-color="#DBA868"/>
<stop offset="0.36" stop-color="#F0E088"/>
<stop offset="0.46" stop-color="#DAA35F"/>
<stop offset="0.54" stop-color="#D59647"/>
<stop offset="0.66" stop-color="#9A6830"/>
<stop offset="0.77" stop-color="#EFE188"/>
<stop offset="0.91" stop-color="#D59647"/>
<stop offset="0.93" stop-color="#BD843E"/>
<stop offset="0.98" stop-color="#805426"/>
<stop offset="1" stop-color="#68421D"/>
</linearGradient>
</defs>
</svg>
