<svg width="205" height="206" viewBox="0 0 205 206" fill="none" xmlns="http://www.w3.org/2000/svg">
<g filter="url(#filter0_f_1_3179)">
<circle cx="102.5" cy="103.305" r="52.5" fill="url(#paint0_linear_1_3179)" fill-opacity="0.3"/>
</g>
<path d="M114.255 96.2596C113.315 99.5422 111.555 102.532 109.141 104.946C106.727 107.36 103.737 109.12 100.455 110.06M100.455 71.5506C103.742 72.4807 106.736 74.2373 109.152 76.6531C111.568 79.0689 113.325 82.0632 114.255 85.3506M75.7456 85.3506C76.6851 82.0679 78.4449 79.0786 80.8592 76.6642C83.2736 74.2499 86.2629 72.4901 89.5456 71.5506M89.5456 110.06C86.2582 109.13 83.2638 107.373 80.8481 104.957C78.4323 102.541 76.6757 99.547 75.7456 96.2596" stroke="white" stroke-width="2" stroke-miterlimit="10"/>
<path d="M114.255 96.2596C113.315 99.5422 111.555 102.532 109.141 104.946C106.727 107.36 103.737 109.12 100.455 110.06M100.455 71.5506C103.742 72.4807 106.736 74.2373 109.152 76.6531C111.568 79.0689 113.325 82.0632 114.255 85.3506M75.7456 85.3506C76.6851 82.0679 78.4449 79.0786 80.8592 76.6642C83.2736 74.2499 86.2629 72.4901 89.5456 71.5506M89.5456 110.06C86.2582 109.13 83.2638 107.373 80.8481 104.957C78.4323 102.541 76.6757 99.547 75.7456 96.2596" stroke="url(#paint1_linear_1_3179)" stroke-width="2" stroke-miterlimit="10"/>
<path d="M130.454 95.9135C129.349 103.569 125.796 110.661 120.326 116.131C114.857 121.6 107.764 125.153 100.109 126.259M100.109 55.35C107.764 56.4557 114.857 60.0087 120.326 65.4781C125.796 70.9476 129.349 78.0398 130.454 85.6954M59.5454 85.6954C60.6511 78.0398 64.2041 70.9476 69.6736 65.4781C75.143 60.0087 82.2353 56.4557 89.8908 55.35M89.8908 126.259C82.2353 125.153 75.143 121.6 69.6736 116.131C64.2041 110.661 60.6511 103.569 59.5454 95.9135" stroke="white" stroke-width="2" stroke-miterlimit="10"/>
<path d="M130.454 95.9135C129.349 103.569 125.796 110.661 120.326 116.131C114.857 121.6 107.764 125.153 100.109 126.259M100.109 55.35C107.764 56.4557 114.857 60.0087 120.326 65.4781C125.796 70.9476 129.349 78.0398 130.454 85.6954M59.5454 85.6954C60.6511 78.0398 64.2041 70.9476 69.6736 65.4781C75.143 60.0087 82.2353 56.4557 89.8908 55.35M89.8908 126.259C82.2353 125.153 75.143 121.6 69.6736 116.131C64.2041 110.661 60.6511 103.569 59.5454 95.9135" stroke="url(#paint2_linear_1_3179)" stroke-width="2" stroke-miterlimit="10"/>
<path d="M96.8176 107.168H93.1813C91.173 107.168 89.5449 108.796 89.5449 110.805V127.168C89.5449 129.176 91.173 130.805 93.1813 130.805H96.8176C98.8259 130.805 100.454 129.176 100.454 127.168V110.805C100.454 108.796 98.8259 107.168 96.8176 107.168Z" stroke="white" stroke-width="2" stroke-miterlimit="10"/>
<path d="M96.8176 107.168H93.1813C91.173 107.168 89.5449 108.796 89.5449 110.805V127.168C89.5449 129.176 91.173 130.805 93.1813 130.805H96.8176C98.8259 130.805 100.454 129.176 100.454 127.168V110.805C100.454 108.796 98.8259 107.168 96.8176 107.168Z" stroke="url(#paint3_linear_1_3179)" stroke-width="2" stroke-miterlimit="10"/>
<path d="M131.364 85.3499H115C112.992 85.3499 111.364 86.978 111.364 88.9863V92.6226C111.364 94.6309 112.992 96.259 115 96.259H131.364C133.372 96.259 135 94.6309 135 92.6226V88.9863C135 86.978 133.372 85.3499 131.364 85.3499Z" stroke="white" stroke-width="2" stroke-miterlimit="10"/>
<path d="M131.364 85.3499H115C112.992 85.3499 111.364 86.978 111.364 88.9863V92.6226C111.364 94.6309 112.992 96.259 115 96.259H131.364C133.372 96.259 135 94.6309 135 92.6226V88.9863C135 86.978 133.372 85.3499 131.364 85.3499Z" stroke="url(#paint4_linear_1_3179)" stroke-width="2" stroke-miterlimit="10"/>
<path d="M74.9999 85.3499H58.6364C56.6281 85.3499 55 86.978 55 88.9863V92.6226C55 94.6309 56.6281 96.259 58.6364 96.259H74.9999C77.0083 96.259 78.6363 94.6309 78.6363 92.6226V88.9863C78.6363 86.978 77.0083 85.3499 74.9999 85.3499Z" stroke="white" stroke-width="2" stroke-miterlimit="10"/>
<path d="M74.9999 85.3499H58.6364C56.6281 85.3499 55 86.978 55 88.9863V92.6226C55 94.6309 56.6281 96.259 58.6364 96.259H74.9999C77.0083 96.259 78.6363 94.6309 78.6363 92.6226V88.9863C78.6363 86.978 77.0083 85.3499 74.9999 85.3499Z" stroke="url(#paint5_linear_1_3179)" stroke-width="2" stroke-miterlimit="10"/>
<path d="M96.8176 50.8048H93.1813C91.173 50.8048 89.5449 52.4329 89.5449 54.4412V70.8048C89.5449 72.8131 91.173 74.4411 93.1813 74.4411H96.8176C98.8259 74.4411 100.454 72.8131 100.454 70.8048V54.4412C100.454 52.4329 98.8259 50.8048 96.8176 50.8048Z" stroke="white" stroke-width="2" stroke-miterlimit="10"/>
<path d="M96.8176 50.8048H93.1813C91.173 50.8048 89.5449 52.4329 89.5449 54.4412V70.8048C89.5449 72.8131 91.173 74.4411 93.1813 74.4411H96.8176C98.8259 74.4411 100.454 72.8131 100.454 70.8048V54.4412C100.454 52.4329 98.8259 50.8048 96.8176 50.8048Z" stroke="url(#paint6_linear_1_3179)" stroke-width="2" stroke-miterlimit="10"/>
<path d="M56.8179 70.8049V65.3504C56.8179 61.9749 58.1588 58.7377 60.5456 56.3509C62.9324 53.9641 66.1696 52.6232 69.5451 52.6232H74.9996" stroke="white" stroke-width="2" stroke-miterlimit="10"/>
<path d="M133.182 70.8049V65.3504C133.182 61.9749 131.841 58.7377 129.454 56.3509C127.067 53.9641 123.83 52.6232 120.455 52.6232H115" stroke="white" stroke-width="2" stroke-miterlimit="10"/>
<path d="M56.8179 110.805V116.259C56.8179 119.635 58.1588 122.872 60.5456 125.259C62.9324 127.645 66.1696 128.986 69.5451 128.986H74.9996" stroke="white" stroke-width="2" stroke-miterlimit="10"/>
<path d="M133.182 110.805V116.259C133.182 119.635 131.841 122.872 129.454 125.259C127.067 127.645 123.83 128.986 120.455 128.986H115" stroke="white" stroke-width="2" stroke-miterlimit="10"/>
<defs>
<filter id="filter0_f_1_3179" x="0" y="0.80481" width="205" height="205" filterUnits="userSpaceOnUse" color-interpolation-filters="sRGB">
<feFlood flood-opacity="0" result="BackgroundImageFix"/>
<feBlend mode="normal" in="SourceGraphic" in2="BackgroundImageFix" result="shape"/>
<feGaussianBlur stdDeviation="25" result="effect1_foregroundBlur_1_3179"/>
</filter>
<linearGradient id="paint0_linear_1_3179" x1="80.7895" y1="261.971" x2="242.98" y2="87.1645" gradientUnits="userSpaceOnUse">
<stop stop-color="#D59647"/>
<stop offset="0.19" stop-color="#DBA868"/>
<stop offset="0.36" stop-color="#F0E088"/>
<stop offset="0.46" stop-color="#DAA35F"/>
<stop offset="0.54" stop-color="#D59647"/>
<stop offset="0.77" stop-color="#EFE188"/>
<stop offset="0.91" stop-color="#D59647"/>
<stop offset="0.93" stop-color="#BD843E"/>
<stop offset="0.98" stop-color="#805426"/>
<stop offset="1" stop-color="#68421D"/>
</linearGradient>
<linearGradient id="paint1_linear_1_3179" x1="67.6494" y1="116.581" x2="117.156" y2="115.294" gradientUnits="userSpaceOnUse">
<stop stop-color="#D59647"/>
<stop offset="0.19" stop-color="#DBA868"/>
<stop offset="0.36" stop-color="#F0E088"/>
<stop offset="0.46" stop-color="#DAA35F"/>
<stop offset="0.54" stop-color="#D59647"/>
<stop offset="0.66" stop-color="#9A6830"/>
<stop offset="0.77" stop-color="#EFE188"/>
<stop offset="0.91" stop-color="#D59647"/>
<stop offset="0.93" stop-color="#BD843E"/>
<stop offset="0.98" stop-color="#805426"/>
<stop offset="1" stop-color="#68421D"/>
</linearGradient>
<linearGradient id="paint2_linear_1_3179" x1="44.6373" y1="138.268" x2="135.798" y2="135.897" gradientUnits="userSpaceOnUse">
<stop stop-color="#D59647"/>
<stop offset="0.19" stop-color="#DBA868"/>
<stop offset="0.36" stop-color="#F0E088"/>
<stop offset="0.46" stop-color="#DAA35F"/>
<stop offset="0.54" stop-color="#D59647"/>
<stop offset="0.66" stop-color="#9A6830"/>
<stop offset="0.77" stop-color="#EFE188"/>
<stop offset="0.91" stop-color="#D59647"/>
<stop offset="0.93" stop-color="#BD843E"/>
<stop offset="0.98" stop-color="#805426"/>
<stop offset="1" stop-color="#68421D"/>
</linearGradient>
<linearGradient id="paint3_linear_1_3179" x1="87.2514" y1="134.807" x2="101.284" y2="134.639" gradientUnits="userSpaceOnUse">
<stop stop-color="#D59647"/>
<stop offset="0.19" stop-color="#DBA868"/>
<stop offset="0.36" stop-color="#F0E088"/>
<stop offset="0.46" stop-color="#DAA35F"/>
<stop offset="0.54" stop-color="#D59647"/>
<stop offset="0.66" stop-color="#9A6830"/>
<stop offset="0.77" stop-color="#EFE188"/>
<stop offset="0.91" stop-color="#D59647"/>
<stop offset="0.93" stop-color="#BD843E"/>
<stop offset="0.98" stop-color="#805426"/>
<stop offset="1" stop-color="#68421D"/>
</linearGradient>
<linearGradient id="paint4_linear_1_3179" x1="106.394" y1="98.1065" x2="136.706" y2="96.399" gradientUnits="userSpaceOnUse">
<stop stop-color="#D59647"/>
<stop offset="0.19" stop-color="#DBA868"/>
<stop offset="0.36" stop-color="#F0E088"/>
<stop offset="0.46" stop-color="#DAA35F"/>
<stop offset="0.54" stop-color="#D59647"/>
<stop offset="0.66" stop-color="#9A6830"/>
<stop offset="0.77" stop-color="#EFE188"/>
<stop offset="0.91" stop-color="#D59647"/>
<stop offset="0.93" stop-color="#BD843E"/>
<stop offset="0.98" stop-color="#805426"/>
<stop offset="1" stop-color="#68421D"/>
</linearGradient>
<linearGradient id="paint5_linear_1_3179" x1="50.0306" y1="98.1065" x2="80.3418" y2="96.399" gradientUnits="userSpaceOnUse">
<stop stop-color="#D59647"/>
<stop offset="0.19" stop-color="#DBA868"/>
<stop offset="0.36" stop-color="#F0E088"/>
<stop offset="0.46" stop-color="#DAA35F"/>
<stop offset="0.54" stop-color="#D59647"/>
<stop offset="0.66" stop-color="#9A6830"/>
<stop offset="0.77" stop-color="#EFE188"/>
<stop offset="0.91" stop-color="#D59647"/>
<stop offset="0.93" stop-color="#BD843E"/>
<stop offset="0.98" stop-color="#805426"/>
<stop offset="1" stop-color="#68421D"/>
</linearGradient>
<linearGradient id="paint6_linear_1_3179" x1="87.2514" y1="78.444" x2="101.284" y2="78.2756" gradientUnits="userSpaceOnUse">
<stop stop-color="#D59647"/>
<stop offset="0.19" stop-color="#DBA868"/>
<stop offset="0.36" stop-color="#F0E088"/>
<stop offset="0.46" stop-color="#DAA35F"/>
<stop offset="0.54" stop-color="#D59647"/>
<stop offset="0.66" stop-color="#9A6830"/>
<stop offset="0.77" stop-color="#EFE188"/>
<stop offset="0.91" stop-color="#D59647"/>
<stop offset="0.93" stop-color="#BD843E"/>
<stop offset="0.98" stop-color="#805426"/>
<stop offset="1" stop-color="#68421D"/>
</linearGradient>
</defs>
</svg>
