<svg width="205" height="206" viewBox="0 0 205 206" fill="none" xmlns="http://www.w3.org/2000/svg">
<g filter="url(#filter0_f_1_3192)">
<circle cx="102.5" cy="103.305" r="52.5" fill="url(#paint0_linear_1_3192)" fill-opacity="0.3"/>
</g>
<path d="M100.717 62.0205V58.6466H117.229V62.0205C117.229 62.4157 117.386 62.7947 117.666 63.0741C117.946 63.3535 118.326 63.5105 118.722 63.5105H128.468C128.864 63.5105 129.244 63.3535 129.524 63.0741C129.804 62.7947 129.961 62.4157 129.961 62.0205V52.2948C129.961 51.8997 129.804 51.5207 129.524 51.2412C129.244 50.9618 128.864 50.8048 128.468 50.8048H118.722C118.326 50.8048 117.946 50.9618 117.666 51.2412C117.386 51.5207 117.229 51.8997 117.229 52.2948V55.6666H100.723V52.2948C100.723 51.8997 100.566 51.5207 100.286 51.2412C100.006 50.9618 99.6262 50.8048 99.2302 50.8048H89.4778C89.0818 50.8048 88.702 50.9618 88.422 51.2412C88.1419 51.5207 87.9847 51.8997 87.9847 52.2948V55.6666H71.4811V52.2948C71.4811 51.8997 71.3238 51.5207 71.0438 51.2412C70.7638 50.9618 70.384 50.8048 69.988 50.8048H60.242C59.846 50.8048 59.4662 50.9618 59.1862 51.2412C58.9061 51.5207 58.7488 51.8997 58.7488 52.2948V62.0205C58.7488 62.4157 58.9061 62.7947 59.1862 63.0741C59.4662 63.3535 59.846 63.5105 60.242 63.5105H69.988C70.384 63.5105 70.7638 63.3535 71.0438 63.0741C71.3238 62.7947 71.4811 62.4157 71.4811 62.0205V58.6466H82.733C78.4669 62.095 75.3313 68.0402 73.4222 76.3737C71.7819 83.5408 68.7678 88.4834 64.4633 91.0612C62.0203 92.4974 59.2086 93.1865 56.3769 93.0429V89.3391C56.3769 88.9439 56.2195 88.565 55.9395 88.2855C55.6595 88.0061 55.2797 87.8491 54.8837 87.8491H45.1313C44.7353 87.8491 44.3555 88.0061 44.0755 88.2855C43.7955 88.565 43.6382 88.9439 43.6382 89.3391V99.0648C43.6382 99.46 43.7955 99.839 44.0755 100.118C44.3555 100.398 44.7353 100.555 45.1313 100.555H54.8773C55.2733 100.555 55.6531 100.398 55.9331 100.118C56.2132 99.839 56.3705 99.46 56.3705 99.0648V96.04C56.5838 96.04 56.8205 96.0549 57.0594 96.0549C60.1849 96.0706 63.256 95.2401 65.9458 93.6517C70.999 90.6418 74.493 85.0521 76.3274 77.0379C78.3496 68.2148 81.722 62.4036 86.3529 59.7663C86.875 59.4693 87.4191 59.2124 87.9804 58.9979V62.0205C87.9804 62.4157 88.1377 62.7947 88.4177 63.0741C88.6977 63.3535 89.0775 63.5105 89.4735 63.5105H99.2195C99.4159 63.5111 99.6106 63.473 99.7922 63.3983C99.9739 63.3237 100.139 63.214 100.278 63.0756C100.417 62.9372 100.528 62.7727 100.603 62.5917C100.678 62.4106 100.717 62.2165 100.717 62.0205ZM53.3906 97.5684H46.6245V90.8292H53.3842V97.5747L53.3906 97.5684ZM97.7306 58.6402V60.5241H90.9709V53.7849H97.7306V58.6466V58.6402ZM120.209 55.6602V53.7785H126.969V60.5241H120.215V55.6666L120.209 55.6602ZM68.4948 58.6402V60.5241H61.7351V53.7849H68.4948V58.6466V58.6402Z" fill="white"/>
<path d="M100.717 62.0205V58.6466H117.229V62.0205C117.229 62.4157 117.386 62.7947 117.666 63.0741C117.946 63.3535 118.326 63.5105 118.722 63.5105H128.468C128.864 63.5105 129.244 63.3535 129.524 63.0741C129.804 62.7947 129.961 62.4157 129.961 62.0205V52.2948C129.961 51.8997 129.804 51.5207 129.524 51.2412C129.244 50.9618 128.864 50.8048 128.468 50.8048H118.722C118.326 50.8048 117.946 50.9618 117.666 51.2412C117.386 51.5207 117.229 51.8997 117.229 52.2948V55.6666H100.723V52.2948C100.723 51.8997 100.566 51.5207 100.286 51.2412C100.006 50.9618 99.6262 50.8048 99.2302 50.8048H89.4778C89.0818 50.8048 88.702 50.9618 88.422 51.2412C88.1419 51.5207 87.9847 51.8997 87.9847 52.2948V55.6666H71.4811V52.2948C71.4811 51.8997 71.3238 51.5207 71.0438 51.2412C70.7638 50.9618 70.384 50.8048 69.988 50.8048H60.242C59.846 50.8048 59.4662 50.9618 59.1862 51.2412C58.9061 51.5207 58.7488 51.8997 58.7488 52.2948V62.0205C58.7488 62.4157 58.9061 62.7947 59.1862 63.0741C59.4662 63.3535 59.846 63.5105 60.242 63.5105H69.988C70.384 63.5105 70.7638 63.3535 71.0438 63.0741C71.3238 62.7947 71.4811 62.4157 71.4811 62.0205V58.6466H82.733C78.4669 62.095 75.3313 68.0402 73.4222 76.3737C71.7819 83.5408 68.7678 88.4834 64.4633 91.0612C62.0203 92.4974 59.2086 93.1865 56.3769 93.0429V89.3391C56.3769 88.9439 56.2195 88.565 55.9395 88.2855C55.6595 88.0061 55.2797 87.8491 54.8837 87.8491H45.1313C44.7353 87.8491 44.3555 88.0061 44.0755 88.2855C43.7955 88.565 43.6382 88.9439 43.6382 89.3391V99.0648C43.6382 99.46 43.7955 99.839 44.0755 100.118C44.3555 100.398 44.7353 100.555 45.1313 100.555H54.8773C55.2733 100.555 55.6531 100.398 55.9331 100.118C56.2132 99.839 56.3705 99.46 56.3705 99.0648V96.04C56.5838 96.04 56.8205 96.0549 57.0594 96.0549C60.1849 96.0706 63.256 95.2401 65.9458 93.6517C70.999 90.6418 74.493 85.0521 76.3274 77.0379C78.3496 68.2148 81.722 62.4036 86.3529 59.7663C86.875 59.4693 87.4191 59.2124 87.9804 58.9979V62.0205C87.9804 62.4157 88.1377 62.7947 88.4177 63.0741C88.6977 63.3535 89.0775 63.5105 89.4735 63.5105H99.2195C99.4159 63.5111 99.6106 63.473 99.7922 63.3983C99.9739 63.3237 100.139 63.214 100.278 63.0756C100.417 62.9372 100.528 62.7727 100.603 62.5917C100.678 62.4106 100.717 62.2165 100.717 62.0205ZM53.3906 97.5684H46.6245V90.8292H53.3842V97.5747L53.3906 97.5684ZM97.7306 58.6402V60.5241H90.9709V53.7849H97.7306V58.6466V58.6402ZM120.209 55.6602V53.7785H126.969V60.5241H120.215V55.6666L120.209 55.6602ZM68.4948 58.6402V60.5241H61.7351V53.7849H68.4948V58.6466V58.6402Z" fill="url(#paint1_linear_1_3192)"/>
<path d="M134.094 99.1032L121.475 86.5103L127.584 83.5303C127.836 83.4073 128.049 83.2157 128.197 82.9776C128.345 82.7395 128.423 82.4645 128.422 82.1842C128.421 81.9038 128.34 81.6296 128.19 81.3929C128.039 81.1562 127.825 80.9667 127.571 80.8461L95.2572 65.4562C94.9793 65.3241 94.6674 65.2808 94.364 65.3324C94.0606 65.3839 93.7806 65.5278 93.5623 65.7443C93.344 65.9607 93.1981 66.2392 93.1444 66.5416C93.0908 66.844 93.1321 67.1556 93.2627 67.4337L108.521 99.8482C108.64 100.102 108.83 100.317 109.067 100.469C109.303 100.62 109.578 100.702 109.86 100.704C110.141 100.706 110.417 100.629 110.657 100.481C110.896 100.334 111.089 100.122 111.213 99.8695L114.199 93.7753L126.816 106.368C126.955 106.507 127.119 106.616 127.3 106.691C127.481 106.766 127.676 106.805 127.872 106.805C128.068 106.805 128.262 106.766 128.443 106.691C128.624 106.616 128.789 106.507 128.928 106.368L134.096 101.211C134.235 101.072 134.344 100.908 134.419 100.727C134.494 100.546 134.533 100.352 134.532 100.156C134.532 99.9607 134.493 99.767 134.418 99.5863C134.343 99.4056 134.233 99.2414 134.094 99.1032ZM127.87 103.205L114.83 90.1907C114.69 90.0511 114.524 89.9406 114.341 89.8657C114.158 89.7908 113.962 89.7529 113.764 89.7543C113.682 89.7543 113.599 89.7607 113.518 89.7735C113.284 89.8124 113.062 89.9067 112.871 90.0485C112.68 90.1903 112.526 90.3756 112.422 90.5888L109.881 95.7677L97.723 69.9391L123.482 82.2041L118.294 84.75C118.081 84.854 117.895 85.0075 117.753 85.1977C117.61 85.3879 117.516 85.6092 117.476 85.8432C117.437 86.0773 117.455 86.3173 117.527 86.5433C117.6 86.7693 117.725 86.9747 117.893 87.1425L130.935 100.157L127.87 103.205Z" fill="white"/>
<defs>
<filter id="filter0_f_1_3192" x="0" y="0.80481" width="205" height="205" filterUnits="userSpaceOnUse" color-interpolation-filters="sRGB">
<feFlood flood-opacity="0" result="BackgroundImageFix"/>
<feBlend mode="normal" in="SourceGraphic" in2="BackgroundImageFix" result="shape"/>
<feGaussianBlur stdDeviation="25" result="effect1_foregroundBlur_1_3192"/>
</filter>
<linearGradient id="paint0_linear_1_3192" x1="80.7895" y1="261.971" x2="242.98" y2="87.1645" gradientUnits="userSpaceOnUse">
<stop stop-color="#D59647"/>
<stop offset="0.19" stop-color="#DBA868"/>
<stop offset="0.36" stop-color="#F0E088"/>
<stop offset="0.46" stop-color="#DAA35F"/>
<stop offset="0.54" stop-color="#D59647"/>
<stop offset="0.77" stop-color="#EFE188"/>
<stop offset="0.91" stop-color="#D59647"/>
<stop offset="0.93" stop-color="#BD843E"/>
<stop offset="0.98" stop-color="#805426"/>
<stop offset="1" stop-color="#68421D"/>
</linearGradient>
<linearGradient id="paint1_linear_1_3192" x1="25.4894" y1="108.98" x2="136.316" y2="103.98" gradientUnits="userSpaceOnUse">
<stop stop-color="#D59647"/>
<stop offset="0.19" stop-color="#DBA868"/>
<stop offset="0.36" stop-color="#F0E088"/>
<stop offset="0.46" stop-color="#DAA35F"/>
<stop offset="0.54" stop-color="#D59647"/>
<stop offset="0.66" stop-color="#9A6830"/>
<stop offset="0.77" stop-color="#EFE188"/>
<stop offset="0.91" stop-color="#D59647"/>
<stop offset="0.93" stop-color="#BD843E"/>
<stop offset="0.98" stop-color="#805426"/>
<stop offset="1" stop-color="#68421D"/>
</linearGradient>
</defs>
</svg>
